<?xml version="1.0" encoding="UTF-8" standalone="no"?>
<svg width="24px" height="24px" viewBox="0 0 24 24" version="1.1" xmlns="http://www.w3.org/2000/svg" xmlns:xlink="http://www.w3.org/1999/xlink">
    <!-- Generator: Sketch 48.2 (47327) - http://www.bohemiancoding.com/sketch -->
    <title>icon/Food/Coffee Cup Dark</title>
    <desc>Created with Sketch.</desc>
    <defs></defs>
    <g id="Page-1" stroke="none" stroke-width="1" fill="none" fill-rule="evenodd" opacity="0.600000024">
        <g id="icon/Food/Coffee-Cup-Dark">
            <g id="Icons/Food/Coffeecup">
                <rect id="Bounds" fill="#D8D8D8" opacity="0" x="0" y="0" width="24" height="24"></rect>
                <g id="Layer_1" transform="translate(4.000000, 4.000000)" stroke-linecap="round" stroke-linejoin="round">
                    <g id="Group">
                        <path d="M13.6,9.3 C14.4,9.9 14.8,10.7 14.8,11.5 C14.8,13.7 11.6,15.5 7.7,15.5 C3.8,15.5 0.6,13.7 0.6,11.5 C0.6,10.7 1,9.9 1.8,9.3" id="Shape" stroke="#000000"></path>
                        <path d="M14.4,3.3 C13.6,1.7 10.7,0.5 7.5,0.5 C4.4,0.5 1.5,1.7 0.7,3.3 C0.7,3.3 2,6.4 7.8,6.4 C13.1,6.4 14.4,3.3 14.4,3.3 L14.4,3.3 Z" id="Shape" stroke="#000000" stroke-width="0.7" fill="#000000"></path>
                        <path d="M14.4,3.8 L14.4,5.4 C14.4,9.2 11.3,12.3 7.5,12.3 C3.7,12.3 0.6,9.2 0.6,5.4 L0.7,3.6" id="Shape" stroke="#000000"></path>
                        <path d="M14.6,3.6 L14.8,3.6 C16.2,3.6 17.4,4.8 17.4,6.2 C17.4,7.5 16.4,8.7 15.1,8.8" id="Shape" stroke="#000000" stroke-width="0.7"></path>
                        <path d="M14.6,3.6 L14.8,3.6 C16.2,3.6 17.4,4.8 17.4,6.2 C17.4,7.5 16.4,8.7 15.1,8.8" id="Shape" stroke="#000000"></path>
                        <path d="M9.3,1.8 C8.7,1.7 8.1,1.7 7.5,1.7 C5.2,1.6 3.2,2.3 2,3.2" id="Shape" stroke="#FFFFFF" stroke-width="0.7"></path>
                        <path d="M12.8,3 C12.3,2.7 11.7,2.4 11.1,2.2" id="Shape" stroke="#FFFFFF" stroke-width="0.7"></path>
                    </g>
                </g>
            </g>
        </g>
    </g>
</svg>