<?xml version="1.0" encoding="UTF-8" standalone="no"?>
<svg width="24px" height="24px" viewBox="0 0 24 24" version="1.1" xmlns="http://www.w3.org/2000/svg" xmlns:xlink="http://www.w3.org/1999/xlink">
    <!-- Generator: Sketch 43.2 (39069) - http://www.bohemiancoding.com/sketch -->
    <title>Bounds</title>
    <desc>Created with Sketch.</desc>
    <defs></defs>
    <g id="2.2-Iconography" stroke="none" stroke-width="1" fill="none" fill-rule="evenodd">
        <g id="icon/phone_dark">
            <rect id="Bounds" x="0" y="0" width="24" height="24"></rect>
            <g id="Page-1" opacity="0.600000024" transform="translate(5.000000, 3.000000)" stroke="#000000" stroke-linecap="round" stroke-linejoin="round">
                <path d="M11.0039946,12.6386611 C5.24122634,12.6386611 0.56942382,7.84498548 0.56942382,1.93188415 C0.56942382,1.75915884 0.573460038,1.58716438 0.581295047,1.41638801 C0.600526434,0.999557241 0.934107902,0.671159887 1.34081612,0.671159887 L3.05668322,0.671159887 C3.47478782,0.671159887 3.75945983,1.03074037 3.78510168,1.4590212 C3.80314595,1.75769713 3.93990248,3.11781762 4.00543165,3.8143221 C4.04864291,4.27329882 3.99213587,4.73398086 3.66187835,5.04629942 C3.23831298,5.44656414 2.72951221,5.9274665 2.72951221,5.9274665 C3.6633029,7.95972965 5.29108549,9.59050999 7.29542339,10.5045655 L8.26672715,9.5037819 C8.56279554,9.1987719 8.98161241,9.13372583 9.39971701,9.1707558 C9.93985782,9.21826136 11.3762762,9.30913095 11.6174996,9.33105659 C12.0403527,9.36930465 12.4007631,9.64264429 12.4007631,10.07799 L12.4007631,11.8276561 C12.4007631,12.2357166 12.094248,12.575564 11.6975116,12.6052854 C11.4527269,12.6235568 11.1927471,12.6386611 11.0039946,12.6386611 L11.0039946,12.6386611 Z" id="Stroke-1"></path>
                <path d="M12.4382524,11.1550505 C13.1697574,11.1255727 13.8590008,11.6525189 14.1524576,12.340984 C14.4456768,13.0294491 14.3829968,13.8394796 14.1035481,14.5337916 C13.7455119,15.4234853 13.0491458,16.1497112 12.2236207,16.606739 C11.3978581,17.0637667 10.449822,17.2618283 9.51175765,17.2581741 C9.06350013,17.2564687 8.56039755,17.1804599 8.29020843,16.8135708 C8.13374567,16.6011357 8.08507364,16.3277961 8.04091267,16.0654193 C7.95140363,15.5338443 7.92528693,14.8563421 8.38684022,14.5973759 C8.45806758,14.5574225 8.54377783,14.531599 8.62070338,14.5588842 C8.73253034,14.5988376 8.78191464,14.7318532 8.80304542,14.8512261 C8.95855849,15.7292261 8.27691266,16.6089315 7.43975376,16.8503572 C6.60259486,17.0917828 5.68874784,16.8038261 4.97148832,16.2992928 C4.62081229,16.0527511 4.28343203,15.7158271 4.23214833,15.2829176 C4.17896524,14.8329547 4.46648635,14.3927366 4.84945212,14.1669025 C5.13341186,13.9992932 5.54296917,13.9525185 5.75142791,14.2119719 C5.95561301,14.4658221 5.82716634,14.8848454 5.55721464,15.0629303 C5.28726295,15.2410152 4.93563722,15.2273726 4.62556078,15.1428371 C3.99519865,14.970599 3.43368963,14.5106478 3.17869568,13.8945374 C2.92346431,13.2784269 3.00181441,12.5166327 3.41659507,12.0001621" id="Stroke-3"></path>
            </g>
        </g>
    </g>
</svg>