<?xml version="1.0" encoding="UTF-8" standalone="no"?>
<svg width="24px" height="24px" viewBox="0 0 24 24" version="1.1" xmlns="http://www.w3.org/2000/svg" xmlns:xlink="http://www.w3.org/1999/xlink">
    <!-- Generator: Sketch 49 (51002) - http://www.bohemiancoding.com/sketch -->
    <title>Artboard Copy</title>
    <desc>Created with Sketch.</desc>
    <defs></defs>
    <g id="Artboard-Copy" stroke="none" stroke-width="1" fill="none" fill-rule="evenodd">
        <g id="icon-nitro-coldbrew-2" transform="translate(7.000000, 4.000000)">
            <g id="Group">
                <rect id="Rectangle-2" fill="#D0D0D0" fill-rule="nonzero" opacity="0.5" x="0" y="1.5" width="10" height="2.29999995"></rect>
                <polygon id="Rectangle-2-Copy" fill="#666666" fill-rule="nonzero" points="-2.22044605e-16 3.5 9.8999996 3.5 9.32999992 8.10327726 8.44999981 14.3500004 8.05 17.5 1.95 17.5 1.47999954 13.7823136 0.5 8.02391274"></polygon>
                <path d="M1.13333347,0.5 C0.89196686,0.5 0.68505534,0.672426256 0.6415302,0.909836035 L0.24180327,3.15061145 C-0.108981087,5.06398004 -0.069690958,6.90501078 0.35731696,8.80282353 L1.48780488,13.8902439 L1.5,14 L1.5,17 C1.5,17.2761424 1.72385763,17.5 2,17.5 L7.99247194,17.5 C8.27235641,17.4979149 8.49452887,17.2723847 8.49245788,16.9962501 L8.47001433,14.0037499 L8.48155025,13.8931516 L9.6088467,8.80282353 C10.0064277,6.98530975 10.050516,4.98478749 9.7387065,3.15061145 L9.3485814,0.909999847 C9.3077205,0.669641342 9.0994604,0.5 8.85565348,0.5 L1.13333347,0.5 Z" id="Rectangle" stroke="#666666"></path>
            </g>
            <path d="M2,14.4374999 C2.45368002,14.7091088 2.87034668,14.8132754 3.25,14.7499999 C3.81948,14.6550866 3.875,14.0624996 4.5,14.0624996 C5.125,14.0624996 5.125,14.7499999 5.75,14.7499999 C6.1666667,14.7499999 6.5833333,14.4999999 7,14" id="Path-3" stroke="#979797" stroke-width="0.7"></path>
            <path d="M1,8.7499999 C1.56947997,8.6550866 1.625,8.0624996 2.25,8.0624996 C2.875,8.0624996 2.875,8.7499999 3.5,8.7499999 C3.9166667,8.7499999 4.3333333,8.4999999 4.75,8" id="Path-3-Copy" stroke="#979797" stroke-width="0.7"></path>
            <path d="M5,10.7499999 C5.56948,10.6550866 5.625,10.0624996 6.25,10.0624996 C6.875,10.0624996 6.875,10.7499999 7.5,10.7499999 C7.9166667,10.7499999 8.3333333,10.4999999 8.75,10" id="Path-3-Copy-3" stroke="#979797" stroke-width="0.7"></path>
            <path d="M5,6.7499999 C5.56948,6.6550866 5.625,6.0624996 6.25,6.0624996 C6.875,6.0624996 6.875,6.7499999 7.5,6.7499999 C7.9166667,6.7499999 8.3333333,6.4999999 8.75,6" id="Path-3-Copy-2" stroke="#979797" stroke-width="0.7"></path>
        </g>
    </g>
</svg>