<?xml version="1.0" encoding="UTF-8" standalone="no"?>
<svg width="24px" height="24px" viewBox="0 0 24 24" version="1.1" xmlns="http://www.w3.org/2000/svg" xmlns:xlink="http://www.w3.org/1999/xlink">
    <!-- Generator: Sketch 48.2 (47327) - http://www.bohemiancoding.com/sketch -->
    <title>icon/Food/Coffee Cup Dark Copy</title>
    <desc>Created with Sketch.</desc>
    <defs></defs>
    <g id="Page-1" stroke="none" stroke-width="1" fill="none" fill-rule="evenodd">
        <g id="icon/Food/Coffee-Cup-Dark-Copy">
            <rect id="Bounds" fill="#D8D8D8" opacity="0" x="0" y="0" width="24" height="24"></rect>
            <g id="Page-1" transform="translate(4.000000, 3.000000)">
                <g id="Group-5" transform="translate(3.723404, 2.499574)">
                    <polygon id="Fill-1" fill-opacity="0.59" fill="#666666" points="8.38336407 0.00490811838 0.931457234 0.00490811838 1.49772563 1.89256523 7.85106663 1.89247276"></polygon>
                    <polygon id="Stroke-3" stroke="#666666" stroke-linecap="round" stroke-linejoin="round" points="8.38336407 0.00490811838 0.931457234 0.00490811838 1.49772563 1.89256523 7.85106663 1.89247276"></polygon>
                </g>
                <path d="M3.00791489,15.786617 C3.30525532,16.3926809 3.70280851,16.9405532 4.17908511,17.4086383 C4.80365957,18.0224681 5.65206383,18.3547021 6.52780851,18.3505532 L10.3306809,18.3328936 C11.383234,18.3278936 12.376,17.8324681 13.0039787,16.9876809 C13.2694043,16.6305532 13.4989787,16.2406596 13.6869574,15.828 L3.00791489,15.786617 Z" id="Fill-6" fill="#666666"></path>
                <path d="M3.00791489,15.786617 C3.30525532,16.3926809 3.70280851,16.9405532 4.17908511,17.4086383 C4.80365957,18.0224681 5.65206383,18.3547021 6.52780851,18.3505532 L10.3306809,18.3328936 C11.383234,18.3278936 12.376,17.8324681 13.0039787,16.9876809 C13.2694043,16.6305532 13.4989787,16.2406596 13.6869574,15.828 L3.00791489,15.786617 Z" id="Stroke-8" stroke="#666666" stroke-linecap="round" stroke-linejoin="round"></path>
                <path d="M4.25270884,1.16387062 L5.22113847,4.39213969" id="Stroke-10" stroke="#666666" stroke-linecap="round" stroke-linejoin="round"></path>
                <path d="M11.5745052,4.39208421 L12.6390143,1.1639076" id="Stroke-12" stroke="#666666" stroke-linecap="round" stroke-linejoin="round"></path>
                <path d="M5.3012234,17.0686596 C5.66228723,17.4147405 6.0825,17.6041983 6.51196809,17.6043739" id="Stroke-14" stroke="#FFFFFF" stroke-linecap="round" stroke-linejoin="round"></path>
                <path d="M3.36818085,12.9268191 C3.30892553,14.1432021 3.69647872,15.3332021 4.44371277,16.2739468" id="Stroke-16" stroke="#FFFFFF" stroke-linecap="round" stroke-linejoin="round"></path>
                <path d="M13.9913723,11.3736596 C14.1726489,11.942383 14.2704149,12.548234 14.2704149,13.1770638 C14.2704149,14.5600426 13.7972234,15.9204681 13.0039255,16.9877021 C12.3760532,17.8324894 11.3832872,18.3279149 10.330734,18.3328085 L6.52775532,18.3505745 C5.65211702,18.3547234 4.80371277,18.0224894 4.1791383,17.4086596 C3.01881915,16.2683404 2.32541489,14.6545106 2.41190426,12.8802553" id="Stroke-18" stroke="#666666" stroke-linecap="round" stroke-linejoin="round"></path>
                <polyline id="Stroke-20" stroke="#666666" stroke-linecap="round" stroke-linejoin="round" points="2.5893617 11.3435851 4.00861702 8.02145745 2.5893617 4.69943617 14.0857447 4.69943617 12.6664894 8.02145745 14.0857447 11.3435851 2.5893617 11.3435851"></polyline>
                <polyline id="Stroke-22" stroke="#666666" stroke-linecap="round" stroke-linejoin="round" points="12.63904 1.16389836 12.9215308 0.307360306 3.99574772 0.307360306 4.25267453 1.16389836"></polyline>
                <path d="M3.38360638,7.50481915 C3.04381915,7.50396809 2.76818085,7.89811702 2.88562766,8.21694681 C3.00318085,8.5357766 3.46860638,8.65694681 3.72658511,8.43588298 C3.84647872,8.33311702 3.91467021,8.14801064 3.83126596,8.01396809 C3.78828723,7.94471277 3.7141383,7.90194681 3.64232979,7.86343617 C2.53796809,7.27226596 1.23392553,7.06269149 -1.06382979e-05,7.27811702" id="Stroke-24" stroke="#666666" stroke-linecap="round" stroke-linejoin="round"></path>
                <path d="M0.725734043,9.92709574 C1.5828617,9.31645745 2.54754255,8.85709574 3.56190426,8.57645745 C6.51009574,7.76081915 9.67073404,8.54730851 12.7296702,8.52741489" id="Stroke-26" stroke="#666666" stroke-linecap="round" stroke-linejoin="round"></path>
                <g id="Group" transform="translate(1.071429, 1.071429)" stroke="#666666" stroke-linecap="round" stroke-linejoin="round">
                    <polyline id="Stroke-28" points="12.9861991 0.788357447 0.885879939 0.788357447 2.15502888 3.4611234"></polyline>
                    <path d="M12.3380076,3.7595234 L13.8888587,0.788374468" id="Stroke-30"></path>
                </g>
            </g>
        </g>
    </g>
</svg>