<?xml version="1.0" encoding="UTF-8" standalone="no"?>
<svg width="24px" height="24px" viewBox="0 0 24 24" version="1.1" xmlns="http://www.w3.org/2000/svg" xmlns:xlink="http://www.w3.org/1999/xlink">
    <!-- Generator: Sketch 46.2 (44496) - http://www.bohemiancoding.com/sketch -->
    <title>Artboard</title>
    <desc>Created with Sketch.</desc>
    <defs></defs>
    <g id="Page-1" stroke="none" stroke-width="1" fill="none" fill-rule="evenodd">
        <g id="Artboard">
            <g id="icon-star">
                <rect id="Bounds" fill="#D8D8D8" fill-rule="nonzero" opacity="0" x="0" y="0" width="24" height="24"></rect>
                <g id="Layer_1" stroke-linecap="round" stroke-linejoin="round" transform="translate(3.000000, 3.000000)" stroke-opacity="0.58" stroke="#000000">
                    <g id="Group">
                        <g id="SVGID_1_-link" transform="translate(8.972222, 0.000000)">
                            <path d="M0,0.771428571 C0.128174603,0.771428571 0.38452381,0.9 0.512698413,1.28571429 L2.43531746,6.55714286 L7.9468254,6.81428571 C8.71587302,6.81428571 8.84404762,7.2 8.2031746,7.71428571 L3.8452381,11.0571429" id="SVGID_1_"></path>
                        </g>
                        <g id="SVGID_2_-link" transform="translate(0.000000, 2.571429)">
                            <path d="M12.8174603,8.48571429 L14.3555556,13.8857143 C14.6119048,14.5285714 14.227381,14.7857143 13.5865079,14.4 L8.97222222,11.3142857 L4.35793651,14.4 C3.71706349,14.7857143 3.46071429,14.5285714 3.58888889,13.8857143 L5.12698413,8.48571429 L0.769047619,5.01428571 C0.256349206,4.62857143 0.38452381,4.11428571 1.02539683,4.11428571 L6.53690476,3.85714286 L7.9468254,8.8817842e-16" id="SVGID_2_"></path>
                        </g>
                    </g>
                </g>
            </g>
        </g>
    </g>
</svg>