<?xml version="1.0" encoding="UTF-8" standalone="no"?>
<svg width="24px" height="24px" viewBox="0 0 24 24" version="1.1" xmlns="http://www.w3.org/2000/svg" xmlns:xlink="http://www.w3.org/1999/xlink">
    <!-- Generator: Sketch 49 (51002) - http://www.bohemiancoding.com/sketch -->
    <title>Artboard Copy 3</title>
    <desc>Created with Sketch.</desc>
    <defs>
        <circle id="path-1" cx="12.3" cy="12.3" r="8.5"></circle>
    </defs>
    <g id="Artboard-Copy-3" stroke="none" stroke-width="1" fill="none" fill-rule="evenodd">
        <mask id="mask-2" fill="white">
            <use xlink:href="#path-1"></use>
        </mask>
        <use id="Oval" stroke="#666666" stroke-width="1.5" xlink:href="#path-1"></use>
        <g id="Group-3" mask="url(#mask-2)">
            <g transform="translate(-1.000000, 4.000000)">
                <path d="M15.5,4.17139756 L15.5,3.20814117 C15.5,1.95590786 14.4,0.800000191 13,0.800000191 C11.6,0.800000191 10.5,1.85958222 10.5,3.20814117 L10.5,4.07507192 C10.5,5.42363086 11.6,6.48321289 13,6.48321289 C14.4,6.57953853 15.5,5.42363086 15.5,4.17139756 Z M13.1,5.61628214 C13.2,5.71260778 13.2,5.80893342 13.1,5.80893342 C13.1,5.80893342 13,5.90525906 13,5.90525906 C13,5.90525906 12.9,5.90525906 12.9,5.90525906 C12.6,5.5199565 12.4,5.13465395 12.4,4.74935139 C12.4,4.36404883 12.6,3.88242064 12.8,3.59344372 C13,3.3044668 13.1,3.01548989 13.1,2.63018733 C13.1,2.24488478 13,1.95590786 12.8,1.76325658 C12.7,1.66693094 12.7,1.5706053 12.8,1.5706053 C12.9,1.47427966 13,1.47427966 13,1.5706053 C13.3,1.85958222 13.4,2.24488478 13.4,2.63018733 C13.4,3.01548989 13.2,3.49711808 13,3.786095 C12.7,4.26772319 12.6,5.13465395 13.1,5.61628214 Z" id="Shape" stroke="none" fill="#666666" fill-rule="nonzero"></path>
                <g id="Group-2" stroke="none" stroke-width="1" fill="none" fill-rule="evenodd" transform="translate(0.400000, 2.400000)">
                    <g id="Group" transform="translate(6.995065, 4.440348) rotate(12.000000) translate(-6.995065, -4.440348) translate(0.995065, 1.940348)" fill="#666666">
                        <path d="M7.35110555,1.65360337 L1.14178394,1.08780516 C0.901191929,1.06588223 0.716999194,0.864142616 0.716999194,0.622553853 C0.716999194,0.407469508 0.891359506,0.233109197 1.10644385,0.233109197 C1.11824214,0.233109197 1.13003433,0.233645343 1.14178394,0.234715976 L7.3926913,0.804303513 C7.52994661,0.770917668 7.68052669,0.803820959 7.79313581,0.904850596 L11.4015315,4.14219849 C11.5705596,4.29384564 11.5846497,4.55380432 11.4330025,4.72283247 C11.4296439,4.7265761 11.4262168,4.73025779 11.422723,4.73387569 C11.25735,4.90512448 10.9861264,4.91483865 10.8089259,4.75585949 L7.35110555,1.65360337 Z" id="Combined-Shape"></path>
                        <path d="M6.81432182,2.9005029 L2.54070121,2.9005029 C2.30512714,2.9005029 2.11415662,2.70953239 2.11415662,2.47395831 C2.11415662,2.23838424 2.30512714,2.04741372 2.54070121,2.04741372 L6.79722479,2.04741372 C6.94934018,1.98521532 7.13010262,2.01236313 7.25820201,2.13110735 L9.0100259,3.75499452 C9.18377719,3.91605665 9.19406378,4.18747655 9.03300165,4.36122784 C9.02609497,4.36867866 9.01892578,4.37588177 9.01150764,4.38282354 C8.8230804,4.55915078 8.5295144,4.55684513 8.34387996,4.37758003 L6.81432182,2.9005029 Z" id="Combined-Shape-Copy"></path>
                        <path d="M6.2277115,4.09482825 L3.7211052,4.09482825 C3.48553113,4.09482825 3.29456061,3.90385773 3.29456061,3.66828366 C3.29456061,3.43270959 3.48553113,3.24173907 3.7211052,3.24173907 L6.25670777,3.24173907 C6.39882504,3.20044661 6.55837502,3.23353333 6.67353891,3.34240661 L7.494669,4.11868395 C7.66404672,4.27880972 7.67154691,4.54592507 7.51142114,4.71530279 C7.51039499,4.71638824 7.50936308,4.71746823 7.50832546,4.71854271 C7.34417551,4.88852496 7.073779,4.89468084 6.90206345,4.73234495 L6.2277115,4.09482825 Z" id="Combined-Shape-Copy"></path>
                    </g>
                    <g id="Group" transform="translate(18.180441, 4.440348) scale(-1, 1) rotate(12.000000) translate(-18.180441, -4.440348) translate(12.180441, 1.940348)" fill="#666666">
                        <path d="M7.35110555,1.65360337 L1.14178394,1.08780516 C0.901191929,1.06588223 0.716999194,0.864142616 0.716999194,0.622553853 C0.716999194,0.407469508 0.891359506,0.233109197 1.10644385,0.233109197 C1.11824214,0.233109197 1.13003433,0.233645343 1.14178394,0.234715976 L7.3926913,0.804303513 C7.52994661,0.770917668 7.68052669,0.803820959 7.79313581,0.904850596 L11.4015315,4.14219849 C11.5705596,4.29384564 11.5846497,4.55380432 11.4330025,4.72283247 C11.4296439,4.7265761 11.4262168,4.73025779 11.422723,4.73387569 C11.25735,4.90512448 10.9861264,4.91483865 10.8089259,4.75585949 L7.35110555,1.65360337 Z" id="Combined-Shape"></path>
                        <path d="M6.81432182,2.9005029 L2.54070121,2.9005029 C2.30512714,2.9005029 2.11415662,2.70953239 2.11415662,2.47395831 C2.11415662,2.23838424 2.30512714,2.04741372 2.54070121,2.04741372 L6.79722479,2.04741372 C6.94934018,1.98521532 7.13010262,2.01236313 7.25820201,2.13110735 L9.0100259,3.75499452 C9.18377719,3.91605665 9.19406378,4.18747655 9.03300165,4.36122784 C9.02609497,4.36867866 9.01892578,4.37588177 9.01150764,4.38282354 C8.8230804,4.55915078 8.5295144,4.55684513 8.34387996,4.37758003 L6.81432182,2.9005029 Z" id="Combined-Shape-Copy"></path>
                        <path d="M6.2277115,4.09482825 L3.7211052,4.09482825 C3.48553113,4.09482825 3.29456061,3.90385773 3.29456061,3.66828366 C3.29456061,3.43270959 3.48553113,3.24173907 3.7211052,3.24173907 L6.25670777,3.24173907 C6.39882504,3.20044661 6.55837502,3.23353333 6.67353891,3.34240661 L7.494669,4.11868395 C7.66404672,4.27880972 7.67154691,4.54592507 7.51142114,4.71530279 C7.51039499,4.71638824 7.50936308,4.71746823 7.50832546,4.71854271 C7.34417551,4.88852496 7.073779,4.89468084 6.90206345,4.73234495 L6.2277115,4.09482825 Z" id="Combined-Shape-Copy"></path>
                    </g>
                </g>
                <path d="M12.8937822,13.652078 L10.6169687,15.0792287 C10.523378,15.1378932 10.3999508,15.1095799 10.3412864,15.0159892 C10.3125081,14.9700776 10.3035901,14.914454 10.3165732,14.8618469 L10.9271827,12.3876756 C10.9454786,12.3135411 10.9199656,12.2354583 10.8614269,12.186429 L8.88833654,10.533862 C8.80365714,10.4629385 8.79250574,10.3367975 8.8634292,10.2521181 C8.90142953,10.2067474 8.9575727,10.1805364 9.01675482,10.1805364 L11.5059793,10.1805364 C11.5860834,10.1805364 11.6584601,10.1327411 11.6899149,10.0590711 L12.816068,7.42151687 C12.8594416,7.31993205 12.9769535,7.27274249 13.0785384,7.31611603 C13.125941,7.33635548 13.1636997,7.37411421 13.1839392,7.42151687 L14.3100923,10.0590711 C14.3415471,10.1327411 14.4139238,10.1805364 14.4940279,10.1805364 L16.9832524,10.1805364 C17.0937094,10.1805364 17.1832524,10.2700794 17.1832524,10.3805364 C17.1832524,10.4397185 17.1570414,10.4958617 17.1116707,10.533862 L15.1385804,12.186429 C15.0800416,12.2354583 15.0545286,12.3135411 15.0728245,12.3876756 L15.683434,14.8618469 C15.7099,14.9690863 15.6444202,15.0774759 15.5371808,15.1039419 C15.4845737,15.116925 15.4289501,15.108007 15.3830385,15.0792287 L13.106225,13.652078 C13.0412641,13.6113593 12.9587431,13.6113593 12.8937822,13.652078 Z" id="Star" stroke="#666666" stroke-width="0.8" fill="#FFFFFF" fill-rule="evenodd"></path>
            </g>
        </g>
        <g id="Group-4" mask="url(#mask-2)">
            <g transform="translate(-1.000000, 5.000000)"></g>
        </g>
    </g>
</svg>