<?xml version="1.0" encoding="UTF-8" standalone="no"?>
<svg width="24px" height="24px" viewBox="0 0 24 24" version="1.1" xmlns="http://www.w3.org/2000/svg" xmlns:xlink="http://www.w3.org/1999/xlink">
    <!-- Generator: Sketch 43.2 (39069) - http://www.bohemiancoding.com/sketch -->
    <title>Bounds</title>
    <desc>Created with Sketch.</desc>
    <defs></defs>
    <g id="2.2-Iconography" stroke="none" stroke-width="1" fill="none" fill-rule="evenodd">
        <g id="icon/directions_dark">
            <rect id="Bounds" fill="#FF0000" opacity="0" x="0" y="0" width="24" height="24"></rect>
            <g id="Page-1" opacity="0.600000024" transform="translate(4.000000, 4.000000)" stroke="#000000" stroke-linecap="round" stroke-linejoin="round">
                <path d="M6.79652917,11.9011333 L6.79652917,9.78321667 C6.79652917,8.670425 7.69847361,7.76824444 8.81126528,7.76824444 L12.7410986,7.76824444" id="Stroke-1"></path>
                <polyline id="Stroke-3" points="10.4038583 5.2455625 12.9267056 7.76840972 10.4038583 10.1672986"></polyline>
                <path d="M16.6588667,9.30603611 L9.30613056,16.6587722 C8.87664444,17.0882583 8.18035278,17.0882583 7.75086667,16.6587722 L0.397894444,9.30603611 C-0.0315916667,8.87655 -0.0315916667,8.18025833 0.397894444,7.75077222 L7.75086667,0.398036111 C8.18035278,-0.03145 8.87664444,-0.03145 9.30613056,0.398036111 L16.6588667,7.75077222 C17.0883528,8.18025833 17.0883528,8.87655 16.6588667,9.30603611 L16.6588667,9.30603611 Z" id="Stroke-5"></path>
            </g>
        </g>
    </g>
</svg>