<?xml version="1.0" encoding="UTF-8" standalone="no"?>
<svg width="24px" height="24px" viewBox="0 0 24 24" version="1.1" xmlns="http://www.w3.org/2000/svg" xmlns:xlink="http://www.w3.org/1999/xlink">
    <!-- Generator: Sketch 48.2 (47327) - http://www.bohemiancoding.com/sketch -->
    <title>Artboard Copy</title>
    <desc>Created with Sketch.</desc>
    <defs></defs>
    <g id="Page-1" stroke="none" stroke-width="1" fill="none" fill-rule="evenodd">
        <g id="Artboard-Copy">
            <g id="Group" transform="translate(3.500000, 3.000000)">
                <g id="Group-2" transform="translate(3.000000, 1.000000)" stroke="#A5A5A5" stroke-linecap="round" stroke-linejoin="round" stroke-width="0.7">
                    <path d="M5.5,3 C4.64285714,3 3.9,3.35555556 3.5,3.88888889" id="Shape"></path>
                </g>
                <path d="M13.8529826,7.40732151 L13.0803611,7.40732151 C13.0803611,5.06043276 11.1778319,3.15790353 8.83094315,3.15790353 C6.4840544,3.15790353 4.58152517,5.06043276 4.58152517,7.40732151 C4.58152517,8.54914771 5.03342383,9.61845586 5.82437415,10.410336 C5.45994301,10.7743392 5.27772744,10.9563408 5.27772744,10.9563408 C4.34351257,10.0210277 3.80890372,8.75600604 3.80890372,7.40732151 C3.80890372,4.63372572 6.05734736,2.38528207 8.83094315,2.38528207 C11.6045389,2.38528207 13.8529826,4.63372572 13.8529826,7.40732151 Z" id="Oval-3" fill="#979797" fill-rule="nonzero" transform="translate(8.830943, 6.670811) rotate(24.000000) translate(-8.830943, -6.670811) "></path>
                <path d="M15,9 L12.2794288,14.905412 L6.07947022,15 L2.3120954,9 C2.98235459,8.57305116 3.65171564,8.35957674 4.32017856,8.35957674 C5.32287295,8.35957674 5.4060661,8.92539499 6.76637015,9 C8.12667421,9.07460501 8.46360396,7.35980562 9.95177763,7.35957674 C11.4399513,7.35934786 11.4741093,8.83948236 12.7547901,9 C13.6085773,9.10701176 14.3569806,9.10701176 15,9 Z" id="Rectangle" fill="#666666"></path>
                <path d="M15.8010771,6 L1.35798902,6 C1.24753207,6 1.15798902,6.08954305 1.15798902,6.2 C1.15798902,6.23700153 1.1682537,6.27327772 1.18764128,6.30479335 L6.20903769,14.4673679 L5.80827626,16 L11.7263293,16 L11.3334355,14.3743262 L15.9744759,6.29966371 C16.0295187,6.2038982 15.9965064,6.08164395 15.9007408,6.0266012 C15.8704171,6.00917214 15.8360529,6 15.8010771,6 Z M17.0137064,6.49831856 L12.3991153,14.5269635 L12.6983447,15.7650828 C12.8280858,16.3019121 12.4980758,16.8422742 11.9612465,16.9720154 C11.8843239,16.9906061 11.8054665,17 11.7263293,17 L5.80827626,17 C5.25599151,17 4.80827626,16.5522847 4.80827626,16 C4.80827626,15.9146306 4.81920799,15.8296125 4.84080475,15.74702 L5.1335237,14.6275748 L0.148401886,6.52396676 C-0.140976964,6.05356446 0.00577153957,5.43764014 0.476173842,5.14826129 C0.633752021,5.05132343 0.815132949,5 1.0001406,5 L13.1051249,5 L16.1467124,5 C16.6989972,5 17.1467124,5.44771525 17.1467124,6 C17.1467124,6.17487867 17.1008517,6.3466998 17.0137064,6.49831856 Z" id="Rectangle" fill="#666666" fill-rule="nonzero"></path>
            </g>
        </g>
    </g>
</svg>